<?xml version="1.0" encoding="utf-8"?>
<svg xmlns="http://www.w3.org/2000/svg" viewBox="0 0 500 500">
  <circle style="stroke: rgb(0, 0, 0); stroke-width: 10px; fill: none;" cx="250" cy="250" r="210"/>
  
  <path transform="translate(152.35, 80)"
    d="M 0 192.658 L 40.254 192.658 Q 41.484 206.896 49.482 216.212 Q 57.48 225.529 70.313 230.099 Q 83.145 234.669 98.086 234.669 Q 114.785 234.669 127.705 229.484 Q 140.625 224.298 148.184 214.718 Q 155.742 205.138 155.742 192.482 Q 155.742 181.056 149.15 173.761 Q 142.559 166.466 131.396 161.632 Q 120.234 156.798 105.996 153.107 L 75.41 144.669 Q 43.242 136.056 25.225 119.181 Q 7.207 102.306 7.207 75.412 Q 7.207 52.736 19.424 35.773 Q 31.641 18.81 52.646 9.406 Q 73.652 0.001 100.02 0.001 Q 126.914 0.001 147.393 9.406 Q 167.871 18.81 179.561 35.158 Q 191.25 51.505 191.777 72.423 L 152.754 72.423 Q 150.82 54.494 136.143 44.65 Q 121.465 34.806 99.141 34.806 Q 83.32 34.806 71.631 39.728 Q 59.941 44.65 53.525 53.351 Q 47.109 62.052 47.109 73.126 Q 47.109 85.607 54.756 93.253 Q 62.402 100.9 73.389 105.382 Q 84.375 109.865 94.395 112.501 L 119.883 119.181 Q 132.363 122.345 145.635 127.707 Q 158.906 133.068 170.156 141.593 Q 181.406 150.119 188.35 162.687 Q 195.293 175.255 195.293 193.009 Q 195.293 215.158 183.867 232.56 Q 172.441 249.962 150.732 259.894 Q 129.023 269.826 98.262 269.826 Q 68.906 269.826 47.285 260.509 Q 25.664 251.193 13.447 233.878 Q 1.23 216.564 0 192.658 Z" vector-effect="non-scaling-stroke"/>
  
  <rect x="245.616" y="344.807" width="10" height="110" style="stroke: rgb(0, 0, 0);"/>
  <rect x="280.616" y="344.807" width="10" height="110" style="stroke: rgb(0, 0, 0);"/>
  <rect x="210.616" y="344.807" width="10" height="110" style="stroke: rgb(0, 0, 0); stroke-width: 1;"/>
  
  <rect x="270.616" y="341.414" width="30" height="70" style="stroke: rgb(0, 0, 0); stroke-width: 1;"/>
  <rect x="200.616" y="341.414" width="30" height="70" style="stroke: rgb(0, 0, 0); stroke-width: 1;"/>
</svg>